<?xml version="1.0" encoding="UTF-8"?>
<svg width="52px" height="22px" viewBox="0 0 52 22" version="1.1" xmlns="http://www.w3.org/2000/svg">
    <g stroke="none" stroke-width="1" fill="none" fill-rule="evenodd">
        <g transform="translate(-16.000000, -8.000000)">
            <g id="logo-хвичи┐" transform="translate(16.000000, 8.000000)">
                <polygon fill="#000000"
                         points="50.1053248 0 3.25345307 0 0 15.4039729 1.44633706 18.0700864 33.8595344 18.0700864 35.990922 22 38.1298258 22 38.9609059 18.0700864 48.2810288 18.0700864 51.5409244 2.64356484"/>
                <polygon fill="#FFFFFF"
                         points="12.2439358 14.4848455 8.5599102 14.4848455 6.71843428 11.0896579 6.00117136 14.4848455 1.95207184 14.4848455 4.62462785 1.83073845 8.67372737 1.83073845 7.96720191 5.17546 10.8910147 1.83073845 14.9175655 1.83073845 14.5439016 3.59919957 10.1254332 8.65547367 12.5370687 13.1018595"/>
                <polygon fill="#FFFFFF"
                         points="22.4724486 14.4848455 14.071453 14.4848455 13.2543316 12.9783786 15.2901557 3.34364781 16.6119381 1.83073845 25.0515887 1.83073845 25.8590463 3.32002538 23.828591 12.934355"/>
                <polygon fill="#FFFFFF"
                         points="33.7854458 14.4848455 25.3833764 14.4848455 24.5662551 12.9783786 26.6020792 3.34364781 27.9238616 1.83073845 36.3635121 1.83073845 37.1709698 3.32002538 35.1405144 12.934355"/>
                <polygon fill="#FFFFFF"
                         points="48.2584802 3.59919957 43.8400117 8.65547367 46.2516472 13.1018595 45.9595881 14.4848455 42.2755625 14.4848455 40.4340866 11.0896579 39.7168237 14.4848455 35.6677241 14.4848455 38.3402802 1.83073845 42.3893797 1.83073845 41.6828542 5.17546 44.606667 1.83073845 48.6332178 1.83073845"/>
                <polygon fill="#000000"
                         points="18.2622871 10.3219288 19.9351847 10.3219288 20.8500171 5.99365513 19.1760457 5.99365513"/>
                <polygon fill="#000000"
                         points="29.5752843 10.3219288 31.248182 10.3219288 32.1630143 5.99365513 30.4890429 5.99365513"/>
            </g>
        </g>
    </g>
</svg>